<svg width="25" height="25" viewBox="0 0 25 25" fill="none" xmlns="http://www.w3.org/2000/svg">
<path d="M22.8745 5.19704V17.2671C22.8745 18.2271 22.0945 19.127 21.1345 19.247L20.8045 19.2871C18.6245 19.5771 15.2645 20.687 13.3445 21.747C13.0845 21.897 12.6545 21.897 12.3845 21.747L12.3445 21.7271C10.4245 20.6771 7.07454 19.5771 4.90454 19.2871L4.6145 19.247C3.6545 19.127 2.87451 18.2271 2.87451 17.2671V5.18703C2.87451 3.99703 3.84448 3.09704 5.03448 3.19704C7.13448 3.36704 10.3145 4.42707 12.0945 5.53707L12.3445 5.68703C12.6345 5.86703 13.1145 5.86703 13.4045 5.68703L13.5745 5.57705C14.2045 5.18705 15.0045 4.79704 15.8745 4.44704V8.52706L17.8745 7.19704L19.8745 8.52706V3.30709C20.1445 3.25709 20.4045 3.22705 20.6445 3.20705H20.7045C21.8945 3.10705 22.8745 3.99704 22.8745 5.19704Z" fill="#DBE3EA"/>
<path d="M12.8745 6.01709V21.0171" stroke="#333E4A" stroke-width="1.5" stroke-linecap="round" stroke-linejoin="round"/>
<path d="M19.8745 3.30713V8.5271L17.8745 7.19708L15.8745 8.5271V4.44708C17.1845 3.92708 18.6445 3.50713 19.8745 3.30713Z" fill="white" stroke="#333E4A" stroke-width="1.5" stroke-linecap="round" stroke-linejoin="round"/>
</svg>
