<svg xmlns="http://www.w3.org/2000/svg" width="25" height="25" viewBox="0 0 25 25" fill="none"><path d="M22.3445 18.8569C22.3445 19.2169 22.2645 19.5869 22.0945 19.9469C21.9245 20.3069 21.7045 20.6469 21.4145 20.9669C20.9245 21.5069 20.3845 21.8969 19.7745 22.1469C19.1745 22.3969 18.5245 22.5269 17.8245 22.5269C16.8045 22.5269 15.7145 22.2869 14.5645 21.7969C13.4145 21.3069 12.2645 20.6469 11.1245 19.8169C9.97451 18.9769 8.88451 18.0469 7.84451 17.0169C6.81451 15.9769 5.88451 14.8869 5.05451 13.7469C4.23451 12.6069 3.57451 11.4669 3.09451 10.3369C2.61451 9.19686 2.37451 8.10686 2.37451 7.06686C2.37451 6.38686 2.49451 5.73686 2.73451 5.13686C2.97451 4.52686 3.35451 3.96686 3.88451 3.46686C4.52451 2.83686 5.22451 2.52686 5.96451 2.52686C6.24451 2.52686 6.52451 2.58686 6.77451 2.70686C7.03451 2.82686 7.26451 3.00686 7.44451 3.26686L9.76451 6.53686C9.94451 6.78686 10.0745 7.01686 10.1645 7.23686C10.2545 7.44686 10.3045 7.65686 10.3045 7.84686C10.3045 8.08686 10.2345 8.32686 10.0945 8.55686C9.96451 8.78686 9.77451 9.02686 9.53451 9.26686L8.77451 10.0569C8.66451 10.1669 8.61451 10.2969 8.61451 10.4569C8.61451 10.5369 8.62451 10.6069 8.64451 10.6869C8.67451 10.7669 8.70451 10.8269 8.72451 10.8869C8.90451 11.2169 9.21451 11.6469 9.65451 12.1669C10.1045 12.6869 10.5845 13.2169 11.1045 13.7469C11.6445 14.2769 12.1645 14.7669 12.6945 15.2169C13.2145 15.6569 13.6445 15.9569 13.9845 16.1369C14.0345 16.1569 14.0945 16.1869 14.1645 16.2169C14.2445 16.2469 14.3245 16.2569 14.4145 16.2569C14.5845 16.2569 14.7145 16.1969 14.8245 16.0869L15.5845 15.3369C15.8345 15.0869 16.0745 14.8969 16.3045 14.7769C16.5345 14.6369 16.7645 14.5669 17.0145 14.5669C17.2045 14.5669 17.4045 14.6069 17.6245 14.6969C17.8445 14.7869 18.0745 14.9169 18.3245 15.0869L21.6345 17.4369C21.8945 17.6169 22.0745 17.8269 22.1845 18.0769C22.2845 18.3269 22.3445 18.5769 22.3445 18.8569Z" fill="#DBE3EA"></path><path d="M18.8745 9.52686C18.8745 8.92686 18.4045 8.00686 17.7045 7.25686C17.0645 6.56686 16.2145 6.02686 15.3745 6.02686" stroke="#F9F6EE" stroke-width="1.5" stroke-linecap="round" stroke-linejoin="round"></path><path d="M22.3745 9.52686C22.3745 5.65686 19.2445 2.52686 15.3745 2.52686" stroke="#F9F6EE" stroke-width="1.5" stroke-linecap="round" stroke-linejoin="round"></path></svg>